 <svg  version="1.0" xmlns="http://www.w3.org/2000/svg"  width="240.000000pt" height="240.000000pt" viewBox="0 0 240.000000 240.000000"  preserveAspectRatio="xMidYMid meet">  <g transform="translate(0.000000,240.000000) scale(0.100000,-0.100000)" fill="#fafafa" stroke="none"> <path d="M1030 1960 c-247 -64 -443 -262 -506 -510 -36 -140 -14 -341 50 -467 l23 -46 56 99 c52 92 56 103 47 134 -13 45 -12 182 1 240 18 80 71 172 134 235 164 164 405 200 609 92 69 -36 162 -124 196 -186 13 -22 28 -41 33 -41 14 0 147 80 147 89 0 4 -17 34 -38 67 -67 103 -187 206 -297 255 -135 60 -314 75 -455 39z"/> <path d="M1112 1498 c-24 -30 -622 -1060 -622 -1072 0 -3 46 -6 103 -6 l102 1 73 129 c40 72 77 130 81 130 4 0 31 -11 60 -25 169 -82 399 -84 570 -4 35 16 67 29 72 29 4 0 41 -58 81 -130 l73 -129 104 -1 c86 0 102 2 98 14 -3 8 -46 84 -95 168 -49 84 -94 163 -101 176 -11 20 -7 28 27 70 57 69 86 122 75 133 -6 6 -40 27 -77 49 l-66 39 -35 -54 c-68 -107 -157 -177 -274 -217 -92 -32 -230 -32 -322 0 -116 40 -118 17 28 274 70 125 130 227 133 227 3 0 42 -67 88 -149 46 -83 88 -152 93 -156 15 -9 139 86 139 107 0 8 -216 376 -232 397 -7 8 -38 12 -88 12 -50 0 -81 -4 -88 -12z"/> </g> </svg> 